{"title":"Mardaani (2014) HINDI 1 CD x264 SAP Non Retail DVD RIP x264-Team","uid":10853994,"size":730175737,"categoryP":"video","categoryS":"movies","magnet":"?xt=urn:btih:658cc7646904a34c52f4cdc8ceb2aa4ad0241343&amp;dn=Mardaani+%282014%29+HINDI+1+CD+x264+SAP+Non+Retail+DVD+RIP+x264-Team&amp;tr=udp%3A%2F%2Ftracker.openbittorrent.com%3A80&amp;tr=udp%3A%2F%2Fopen.demonii.com%3A1337&amp;tr=udp%3A%2F%2Ftracker.coppersurfer.tk%3A6969&amp;tr=udp%3A%2F%2Fexodus.desync.com%3A6969","seeders":1,"leechers":0,"uploader":"TeX","files":2,"time":1408827142,"description":"[img]http://tellypremium.com/images/2014/08/22/5641289fcde2c5c3.jpg[/img]\n\n[img]http://t1.someimage.com/IxtFDnW.jpg[/img]\n[img]http://t1.someimage.com/NSgK4Q8.jpg[/img]\n[img]http://t1.someimage.com/oFs7dpD.jpg[/img]\n\n[mediainfo]General\nComplete name : /Mardaani(2014) 1 CD x264 SAP Telly Nonretail DVD RIP-Team Telly.mp4\nFormat : MPEG-4\nFormat profile : Base Media\nCodec ID : isom\nFile size : 696 MiB\nDuration : 1h 53mn\nOverall bit rate : 856 Kbps\nEncoded date : UTC 2014-08-23 17:16:29\nTagged date : UTC 2014-08-23 17:16:29\n\nVideo\nID : 1\nFormat : AVC\nFormat/Info : Advanced Video Codec\nFormat profile : High &lt;a class=&quot;__cf_email__&quot; href=&quot;/cdn-cgi/l/email-protection&quot; data-cfemail=&quot;330203737f071d02&quot;&gt;[email&amp;#160;protected]&lt;/a&gt;&lt;script cf-hash='f9e31' type=&quot;text/javascript&quot;&gt;\n/* &lt;![CDATA[ */!function(){try{var t=&quot;currentScript&quot;in document?document.currentScript:function(){for(var t=document.getElementsByTagName(&quot;script&quot;),e=t.length;e--;)if(t[e].getAttribute(&quot;cf-hash&quot;))return t[e]}();if(t&amp;&amp;t.previousSibling){var e,r,n,i,c=t.previousSibling,a=c.getAttribute(&quot;data-cfemail&quot;);if(a){for(e=&quot;&quot;,r=parseInt(a.substr(0,2),16),n=2;a.length-n;n+=2)i=parseInt(a.substr(n,2),16)^r,e+=String.fromCharCode(i);e=document.createTextNode(e),c.parentNode.replaceChild(e,c)}}}catch(u){}}();/* ]]&gt; */&lt;/script&gt;\nFormat settings, CABAC : Yes\nFormat settings, ReFrames : 4 frames\nCodec ID : avc1\nCodec ID/Info : Advanced Video Coding\nDuration : 1h 53mn\nBit rate : 777 Kbps\nMaximum bit rate : 3 943 Kbps\nWidth : 656 pixels\nHeight : 336 pixels\nDisplay aspect ratio : 1.952\nFrame rate mode : Constant\nFrame rate : 29.970 fps\nColor space : YUV\nChroma subsampling : 4:2:0\nBit depth : 10 bits\nScan type : Progressive\nBits/(Pixel*Frame) : 0.118\nStream size : 629 MiB (90%)\nWriting library : x264 core 142 r2431 ac76440\n\nEncoded date : UTC 2014-08-23 17:08:14\nTagged date : UTC 2014-08-23 17:16:32\nColor primaries : Generic film\n\nAudio\nID : 2\nFormat : MPEG Audio\nFormat version : Version 1\nFormat profile : Layer 3\nMode : Joint stereo\nMode extension : MS Stereo\nCodec ID : 6B\nDuration : 1h 53mn\nBit rate mode : Constant\nBit rate : 80.0 Kbps\nMaximum bit rate : 83.5 Kbps\nChannel(s) : 2 channels\nSampling rate : 32.0 KHz\nCompression mode : Lossy\nStream size : 65.1 MiB (9%)\nWriting library : LAME3.99r\nEncoding settings : -m j -V 4 -q 2 -lowpass 13.5 -b 80\nEncoded date : UTC 2014-08-23 17:16:32\nTagged date : UTC 2014-08-23 17:16:32[/mediainfo]","torrent":{"xt":"urn:btih:658cc7646904a34c52f4cdc8ceb2aa4ad0241343","amp;dn":"Mardaani+%282014%29+HINDI+1+CD+x264+SAP+Non+Retail+DVD+RIP+x264-Team","amp;tr":["udp%3A%2F%2Ftracker.openbittorrent.com%3A80","udp%3A%2F%2Fopen.demonii.com%3A1337","udp%3A%2F%2Ftracker.coppersurfer.tk%3A6969","udp%3A%2F%2Fexodus.desync.com%3A6969"],"infoHash":"658cc7646904a34c52f4cdc8ceb2aa4ad0241343","infoHashBuffer":{"type":"Buffer","data":[101,140,199,100,105,4,163,76,82,244,205,200,206,178,170,74,208,36,19,67]},"announce":[],"urlList":[]}}